# xmcd CD database file
#
# Track frame offsets:
#	150
#	24993
#	37540
#	52107
#
# Disc length: 909 seconds
#
# Revision: 0
# Processed by: cddbd v1.5.1PL2 Copyright (c) Steve Scherf et al.
# Submitted via: CDex 1.51
#
DISCID=23038b04
DTITLE=San Severino - CD au profit de la prévention de l'illetrisme
DYEAR=2006
DGENRE=Jazz
TTITLE0=J'te plais pas, Mathilde
TTITLE1=La voisine des oiseaux
TTITLE2=Bon anniversaire
TTITLE3=J'te plais pas, Mathilde (version radio)
EXTD=YEAR: 2006
EXTT0=
EXTT1=
EXTT2=
EXTT3=
PLAYORDER=
